<svg width="57" height="16" viewBox="0 0 57 16" fill="none" xmlns="http://www.w3.org/2000/svg">
<path d="M0 7.95019C0 6.7746 0.215857 5.69863 0.647572 4.72229C1.07929 3.74595 1.68369 2.90909 2.46077 2.21171C3.2445 1.50768 4.18099 0.963055 5.27024 0.577833C6.36613 0.192611 7.57825 0 8.9066 0C10.2283 0 11.4371 0.192611 12.533 0.577833C13.6289 0.963055 14.5654 1.50768 15.3425 2.21171C16.1262 2.90909 16.7339 3.74595 17.1656 4.72229C17.5973 5.69863 17.8132 6.7746 17.8132 7.95019C17.8132 8.99959 17.6405 9.9726 17.2951 10.8692C16.9564 11.7592 16.4749 12.5496 15.8506 13.2403L18.6501 15.7808H14.6451L13.6787 14.9041C13.0012 15.2628 12.264 15.5351 11.467 15.721C10.67 15.907 9.81652 16 8.9066 16C7.57825 16 6.36613 15.8041 5.27024 15.4122C4.18099 15.0137 3.2445 14.4591 2.46077 13.7484C1.68369 13.0378 1.07929 12.191 0.647572 11.208C0.215857 10.2183 0 9.13242 0 7.95019ZM3.15816 7.95019C3.15816 8.75384 3.30096 9.47779 3.58655 10.122C3.87879 10.7663 4.28061 11.3176 4.79203 11.7758C5.31009 12.2275 5.91781 12.5762 6.61519 12.8219C7.31922 13.0677 8.08302 13.1905 8.9066 13.1905C9.78996 13.1905 10.5969 13.0511 11.3275 12.7721L6.86426 8.72727H10.8692L13.5791 11.188C13.9178 10.7563 14.1802 10.2715 14.3661 9.7335C14.5587 9.18888 14.655 8.59444 14.655 7.95019C14.655 7.14653 14.5089 6.4259 14.2167 5.78829C13.9245 5.15068 13.5226 4.6127 13.0112 4.17435C12.4998 3.72935 11.8921 3.39062 11.188 3.15816C10.4907 2.9257 9.73018 2.80946 8.9066 2.80946C8.08302 2.80946 7.31922 2.9257 6.61519 3.15816C5.91781 3.39062 5.31009 3.72935 4.79203 4.17435C4.28061 4.6127 3.87879 5.15068 3.58655 5.78829C3.30096 6.4259 3.15816 7.14653 3.15816 7.95019Z" fill="#1C315E"/>
<path d="M26.6301 0.209215H29.9776L37.5093 15.7808H34.1918L32.9465 13.1606H23.8506L22.6451 15.7808H19.3176L26.6301 0.209215ZM31.7011 10.5604L28.3337 3.48692L25.056 10.5604H31.7011Z" fill="#1C315E"/>
<path d="M40.6575 11.1482C41.2221 11.467 41.7933 11.7559 42.3711 12.0149C42.9556 12.2673 43.56 12.4832 44.1843 12.6625C44.8086 12.8352 45.4628 12.968 46.1469 13.061C46.8377 13.154 47.5716 13.2005 48.3487 13.2005C49.2852 13.2005 50.0822 13.1407 50.7397 13.0212C51.3973 12.895 51.9319 12.7256 52.3437 12.5131C52.7621 12.2939 53.0643 12.0349 53.2503 11.736C53.4429 11.4371 53.5392 11.1117 53.5392 10.7597C53.5392 10.1951 53.3034 9.7501 52.8319 9.42466C52.3603 9.09257 51.633 8.92653 50.6501 8.92653C50.2184 8.92653 49.7634 8.95641 49.2852 9.01619C48.807 9.06932 48.3221 9.1291 47.8306 9.19552C47.3458 9.26193 46.8643 9.32503 46.3861 9.38481C45.9145 9.43794 45.4695 9.46451 45.0511 9.46451C44.3537 9.46451 43.6829 9.37484 43.0386 9.19552C42.401 9.01619 41.8331 8.7472 41.335 8.38854C40.8435 8.02989 40.4516 7.58157 40.1594 7.04359C39.8672 6.5056 39.721 5.87796 39.721 5.16065C39.721 4.73557 39.7775 4.31382 39.8904 3.89539C40.01 3.47696 40.1959 3.07846 40.4483 2.69988C40.7074 2.31465 41.0394 1.95932 41.4446 1.63387C41.8497 1.30178 42.3379 1.01619 42.9091 0.777086C43.4869 0.537983 44.1511 0.352013 44.9016 0.219178C45.6588 0.0797011 46.5189 0.00996264 47.4819 0.00996264C48.1793 0.00996264 48.88 0.0498132 49.5841 0.129514C50.2881 0.202574 50.9722 0.308842 51.6364 0.448319C52.3072 0.587796 52.9514 0.757161 53.5691 0.956413C54.1868 1.14902 54.7613 1.36488 55.2927 1.60399L53.9078 4.15442C53.4695 3.96181 52.9979 3.7858 52.4932 3.6264C51.9884 3.46036 51.4604 3.31756 50.9091 3.19801C50.3578 3.07846 49.7866 2.98547 49.1955 2.91905C48.611 2.84599 48.0133 2.80946 47.4022 2.80946C46.5322 2.80946 45.8149 2.87256 45.2503 2.99875C44.6924 3.12495 44.2474 3.28767 43.9153 3.48692C43.5832 3.67953 43.3508 3.89871 43.2179 4.14446C43.0917 4.38356 43.0286 4.62266 43.0286 4.86177C43.0286 5.32669 43.2379 5.70859 43.6563 6.00747C44.0747 6.29971 44.7123 6.44583 45.5691 6.44583C45.9145 6.44583 46.3097 6.42258 46.7547 6.37609C47.2063 6.32296 47.6779 6.2665 48.1694 6.20672C48.6675 6.14695 49.1723 6.09381 49.6837 6.04732C50.2017 5.99419 50.7032 5.96762 51.188 5.96762C52.1046 5.96762 52.9149 6.07057 53.6189 6.27646C54.3296 6.48236 54.924 6.77792 55.4022 7.16314C55.8805 7.54172 56.2424 8.00332 56.4882 8.54795C56.7339 9.08593 56.8568 9.69033 56.8568 10.3611C56.8568 11.2578 56.6476 12.0581 56.2291 12.7621C55.8174 13.4595 55.2262 14.0506 54.4558 14.5355C53.692 15.0137 52.7688 15.379 51.6862 15.6314C50.6036 15.8771 49.3981 16 48.0697 16C47.193 16 46.3362 15.9435 45.4994 15.8306C44.6625 15.7244 43.8589 15.5716 43.0884 15.3724C42.3246 15.1665 41.594 14.924 40.8966 14.6451C40.2059 14.3595 39.565 14.0473 38.9739 13.7086L40.6575 11.1482Z" fill="#1C315E"/>
</svg>
