<svg class="svg-icon" style="width: 1em; height: 1em;vertical-align: middle;fill: currentColor;overflow: hidden;" viewBox="0 0 1024 1024" version="1.1" xmlns="http://www.w3.org/2000/svg"><path d="M364.916364 789.410909a199.68 69.352727 0 1 0 399.36 0 199.68 69.352727 0 1 0-399.36 0Z" fill="#BBEBA1" /><path d="M986.298182 443.112727l-415.650909 208.989091-415.650909-208.989091 415.650909-208.989091z" fill="#BBEBA1" /><path d="M713.076364 827.578182H428.218182c-33.047273 0-60.509091-26.996364-60.509091-60.509091v-263.912727c0-33.047273 26.996364-60.509091 60.509091-60.509091h284.392727c33.047273 0 60.509091 26.996364 60.509091 60.509091v263.912727c0 33.512727-26.996364 60.509091-60.043636 60.509091zM256 652.567273c-13.032727 0-23.272727-10.24-23.272727-23.272728V457.541818c0-13.032727 10.24-23.272727 23.272727-23.272727s23.272727 10.24 23.272727 23.272727v171.752727c0 13.032727-10.24 23.272727-23.272727 23.272728z" fill="#BBEBA1" /><path d="M256 704.232727c-23.272727 0-41.890909-18.618182-41.890909-41.890909s18.618182-41.890909 41.890909-41.890909 41.890909 18.618182 41.890909 41.890909-18.618182 41.890909-41.890909 41.890909z m0-46.545454c-2.792727 0-4.654545 2.327273-4.654545 4.654545s1.861818 4.654545 4.654545 4.654546 4.654545-2.327273 4.654545-4.654546-1.861818-4.654545-4.654545-4.654545z" fill="#BBEBA1" /><path d="M502.225455 633.018182L39.098182 402.152727l464.989091-235.985454 463.127272 230.865454-464.98909 235.985455zM142.894545 401.687273l359.33091 179.2 361.658181-183.389091-359.330909-179.2-361.658182 183.389091z" fill="#353E43" /><path d="M706.094545 772.654545c-13.032727 0-23.272727-10.24-23.272727-23.272727v-235.985454c0-13.032727 10.24-23.272727 23.272727-23.272728s23.272727 10.24 23.272728 23.272728V749.381818c0 13.032727-10.24 23.272727-23.272728 23.272727zM307.2 772.654545c-13.032727 0-23.272727-10.24-23.272727-23.272727v-235.985454c0-13.032727 10.24-23.272727 23.272727-23.272728s23.272727 10.24 23.272727 23.272728V749.381818c0 13.032727-10.705455 23.272727-23.272727 23.272727z" fill="#353E43" /><path d="M506.414545 840.610909c-55.854545 0-108.450909-7.447273-148.48-21.410909-61.44-21.410909-74.007273-50.269091-74.007272-71.214545 0-13.032727 10.24-23.272727 23.272727-23.272728s23.272727 10.24 23.272727 23.272728c0 2.327273 7.447273 14.894545 42.821818 26.996363 35.374545 12.101818 82.850909 19.083636 133.585455 19.083637 50.734545 0 98.210909-6.516364 133.585455-19.083637 35.374545-12.101818 42.821818-24.669091 42.821818-26.996363 0-13.032727 10.24-23.272727 23.272727-23.272728s23.272727 10.24 23.272727 23.272728c0 20.48-13.032727 49.803636-74.007272 70.74909-40.494545 14.429091-93.556364 21.876364-149.41091 21.876364zM194.094545 611.141818c-13.032727 0-23.272727-10.24-23.272727-23.272727v-130.327273c0-13.032727 10.24-23.272727 23.272727-23.272727s23.272727 10.24 23.272728 23.272727v130.327273c0 13.032727-10.24 23.272727-23.272728 23.272727z" fill="#353E43" /><path d="M194.094545 662.807273c-23.272727 0-41.890909-18.618182-41.890909-41.890909s18.618182-41.890909 41.890909-41.890909 41.890909 18.618182 41.89091 41.890909-18.618182 41.890909-41.89091 41.890909z m0-46.545455c-2.792727 0-4.654545 2.327273-4.654545 4.654546s1.861818 4.654545 4.654545 4.654545 4.654545-2.327273 4.654546-4.654545-1.861818-4.654545-4.654546-4.654546z" fill="#353E43" /></svg>